<?xml version="1.0" encoding="UTF-8" standalone="no"?>
<!DOCTYPE svg PUBLIC "-//W3C//DTD SVG 1.1//EN" "http://www.w3.org/Graphics/SVG/1.1/DTD/svg11.dtd">
<svg width="100%" height="100%" viewBox="0 0 736 592" version="1.1" xmlns="http://www.w3.org/2000/svg" xmlns:xlink="http://www.w3.org/1999/xlink" xml:space="preserve" xmlns:serif="http://www.serif.com/" style="fill-rule:evenodd;clip-rule:evenodd;stroke-linecap:round;stroke-linejoin:round;stroke-miterlimit:10;">
    <g transform="matrix(1,0,0,1,-3242.97,-871.24)">
        <g transform="matrix(1,0,0,1,3352.54,0)">
            <g transform="matrix(0.811824,0,0,0.811824,-91.5843,132.93)">
                <g>
                    <g transform="matrix(2.75282,0,0,2.56189,-1354.51,-285.101)">
                        <rect x="484" y="495" width="116" height="16" style="fill:white;"/>
                    </g>
                    <g transform="matrix(-2.56189,0,0,2.56189,352.309,1050.2)">
                        <path d="M0,-32.001L-171.697,-9.643L2.276,0C2.276,0 17.573,-15.223 0,-32.001" style="fill:rgb(255,112,71);fill-rule:nonzero;"/>
                    </g>
                    <g transform="matrix(-2.56189,0,0,2.56189,577.398,986.255)">
                        <path d="M0,10.156C20.845,6.463 41.763,3.171 62.766,0.517C72.484,-0.712 82.295,-1.545 91.984,-3.031C90.972,-4.353 89.774,-5.692 88.36,-7.042L-83.336,15.317L-49.388,17.198C-36.751,14.339 -12.765,12.417 0,10.156" style="fill:rgb(255,141,108);fill-rule:nonzero;"/>
                    </g>
                    <g transform="matrix(0,-2.56189,2.56189,0,295.969,909.445)">
                        <path d="M-33.766,-33.766C-52.414,-33.766 -67.532,-18.649 -67.532,0C-67.532,18.649 -52.414,33.766 -33.766,33.766C-15.118,33.766 0,18.649 0,0C0,-18.649 -15.118,-33.766 -33.766,-33.766" style="fill:white;fill-rule:nonzero;"/>
                    </g>
                    <g transform="matrix(2.56133,0.0535804,-0.0535804,2.56133,346.27,952.48)">
                        <path d="M-22.27,9.729C-22.27,9.729 -10.541,-0.483 0.107,9.729" style="fill:white;fill-rule:nonzero;"/>
                    </g>
                    <g transform="matrix(-2.56189,0,0,2.56189,288.708,962.553)">
                        <path d="M0,5.329C0,5.329 -0.372,5.188 -1.022,4.943C-1.661,4.699 -2.574,4.376 -3.645,4.026C-4.188,3.868 -4.754,3.662 -5.371,3.514C-5.976,3.326 -6.622,3.193 -7.279,3.043C-7.936,2.889 -8.623,2.814 -9.306,2.693C-9.996,2.671 -10.69,2.51 -11.383,2.564L-12.421,2.55C-12.762,2.584 -13.103,2.618 -13.439,2.652C-14.126,2.676 -14.771,2.85 -15.417,2.974C-16.077,3.053 -16.658,3.331 -17.254,3.494C-17.862,3.639 -18.386,3.909 -18.895,4.13C-19.153,4.238 -19.401,4.341 -19.638,4.439C-19.885,4.525 -20.11,4.625 -20.304,4.748C-20.7,4.981 -21.071,5.163 -21.375,5.321C-21.987,5.634 -22.372,5.797 -22.372,5.797C-22.372,5.797 -22.177,5.452 -21.773,4.876C-21.57,4.59 -21.324,4.233 -21.013,3.846C-20.728,3.429 -20.283,3.093 -19.835,2.667C-19.373,2.257 -18.874,1.795 -18.237,1.46C-17.613,1.115 -16.979,0.659 -16.214,0.435C-15.469,0.167 -14.692,-0.139 -13.855,-0.229C-13.441,-0.293 -13.023,-0.378 -12.602,-0.419L-11.33,-0.434C-10.476,-0.468 -9.647,-0.284 -8.828,-0.174C-8.422,-0.101 -8.033,0.027 -7.646,0.132C-7.259,0.243 -6.874,0.339 -6.521,0.501C-5.797,0.782 -5.114,1.081 -4.507,1.436C-3.883,1.758 -3.344,2.148 -2.846,2.492C-1.873,3.224 -1.145,3.919 -0.683,4.456C-0.211,4.98 0,5.329 0,5.329" style="fill:rgb(35,41,42);fill-rule:nonzero;"/>
                    </g>
                </g>
                <g transform="matrix(1,0,0,1,6.50518,0.775807)">
                    <g transform="matrix(-2.56189,0,0,2.56189,718.045,947.936)">
                        <path d="M0,23.641C0,23.641 0.634,0 -23.641,0C-23.641,0 -26.222,23.641 0,23.641" style="fill:rgb(254,252,235);fill-rule:nonzero;"/>
                    </g>
                    <g transform="matrix(-2.56189,0,0,2.56189,718.07,947.936)">
                        <path d="M0,23.641C0,23.641 -0.633,0 23.641,0C23.641,0 26.222,23.641 0,23.641" style="fill:rgb(254,252,235);fill-rule:nonzero;"/>
                    </g>
                    <g transform="matrix(-2.56189,0,0,2.56189,710.568,1569.47)">
                        <path d="M0,-215.561C0,-215.561 -3.322,-67.692 -46.332,-14.57C-46.332,-14.57 22.225,0 25.403,-40.465C28.581,-80.928 0,-215.561 0,-215.561" style="fill:rgb(191,189,176);fill-rule:nonzero;"/>
                    </g>
                    <g transform="matrix(0,-2.56189,2.56189,0,797.584,1391.32)">
                        <path d="M-23.419,-23.42C-36.354,-23.42 -46.839,-12.935 -46.839,-0.001C-46.839,12.934 -36.354,23.419 -23.419,23.419C-10.485,23.419 0,12.934 0,-0.001C0,-12.935 -10.485,-23.42 -23.419,-23.42" style="fill:rgb(244,227,214);fill-rule:nonzero;"/>
                    </g>
                    <g transform="matrix(-2.56189,0,0,2.56189,800.334,1551.5)">
                        <path d="M0,-60.918C0,-60.918 12.794,-42.642 12.118,-10.223C12.118,-10.223 -25.797,1.798 -29.802,-30.459C-33.806,-62.716 0,-60.918 0,-60.918" style="fill:rgb(255,112,71);fill-rule:nonzero;"/>
                    </g>
                    <g transform="matrix(-2.55502,-0.187385,0.187385,-2.55502,785.557,1513.88)">
                        <path d="M-1.879,-0.274C-1.879,-0.274 -9.104,46.868 -15.216,45.812C-21.589,44.711 -4.064,51.05 -1.879,48.479C0.303,45.907 12.992,16.834 9.831,3.973L-1.879,-0.274Z" style="fill:rgb(255,141,108);fill-rule:nonzero;"/>
                    </g>
                    <g transform="matrix(-2.56189,0,0,2.56189,715.522,1639.56)">
                        <path d="M0,-253.1C0,-253.1 27.113,-60.082 -44.398,-42.773C-44.398,-42.773 -35.929,0 11.856,-1.082C49.172,-1.928 63.637,-37.956 62.642,-55.217C61.132,-81.415 54.325,-97.254 35.139,-153.726C23.443,-188.15 0,-253.1 0,-253.1" style="fill:rgb(254,252,235);fill-rule:nonzero;"/>
                    </g>
                    <g transform="matrix(0.734535,-2.45433,2.45433,0.734535,762.527,1409.48)">
                        <path d="M-3.427,3.155C-3.427,3.155 0.035,1.461 2.53,3.155" style="fill:none;fill-rule:nonzero;stroke:rgb(177,157,140);stroke-width:0.48px;"/>
                    </g>
                    <g transform="matrix(0,-2.56189,2.56189,0,759.462,1396.38)">
                        <path d="M-2.926,-2.926C-4.543,-2.926 -5.852,-1.616 -5.852,0C-5.852,1.616 -4.543,2.926 -2.926,2.926C-1.309,2.926 0,1.616 0,0C0,-1.616 -1.309,-2.926 -2.926,-2.926" style="fill:rgb(244,227,214);fill-rule:nonzero;"/>
                    </g>
                    <g transform="matrix(-2.56189,0,0,2.56189,1537.13,242.648)">
                        <g opacity="0.4">
                            <g transform="matrix(0,-1,-1,0,305.945,461.917)">
                                <path d="M-3.168,-3.169C-4.919,-3.169 -6.337,-1.75 -6.337,-0.001C-6.337,1.749 -4.919,3.168 -3.168,3.168C-1.418,3.168 0,1.749 0,-0.001C0,-1.75 -1.418,-3.169 -3.168,-3.169" style="fill:rgb(255,156,155);fill-rule:nonzero;"/>
                            </g>
                        </g>
                    </g>
                </g>
            </g>
        </g>
    </g>
</svg>
