<?xml version="1.0" encoding="UTF-8" standalone="no"?>
<!DOCTYPE svg PUBLIC "-//W3C//DTD SVG 1.1//EN" "http://www.w3.org/Graphics/SVG/1.1/DTD/svg11.dtd">
<svg width="100%" height="100%" viewBox="0 0 1305 747" version="1.1" xmlns="http://www.w3.org/2000/svg" xmlns:xlink="http://www.w3.org/1999/xlink" xml:space="preserve" xmlns:serif="http://www.serif.com/" style="fill-rule:evenodd;clip-rule:evenodd;stroke-linejoin:round;stroke-miterlimit:2;">
    <g transform="matrix(1,0,0,1,-6721.06,724.634)">
        <g transform="matrix(-1,0,0,1,13315.7,0)">
            <g transform="matrix(1,0,0,1,-17.3215,-17.3215)">
                <path d="M5640.91,-646.693C5672.92,-683.807 5720.28,-707.313 5773.08,-707.313C5818.14,-707.313 5859.24,-690.195 5890.22,-662.109C5907.34,-672.544 5927.45,-678.558 5948.96,-678.558C5974.7,-678.558 5998.45,-669.942 6017.44,-655.45C6038.07,-662.856 6060.31,-666.895 6083.49,-666.895C6149.36,-666.895 6207.67,-634.285 6243.15,-584.334C6246.22,-584.541 6249.31,-584.646 6252.42,-584.646C6300.16,-584.646 6342.19,-560.017 6366.5,-522.775C6373.23,-526.179 6380.84,-528.096 6388.88,-528.096C6405.04,-528.096 6419.4,-520.37 6428.48,-508.418C6443.23,-513.906 6459.2,-516.907 6475.87,-516.907C6551,-516.907 6612,-455.906 6612,-380.769C6612,-336.672 6576.17,-287.658 6543.62,-262.777C6542.39,-235.187 6538.57,-221.878 6513.26,-214.01C6493.43,-165.673 6445.88,-131.588 6390.43,-131.588C6364.2,-131.588 6339.75,-139.21 6319.17,-152.351C6292.79,-126.558 6256.71,-110.652 6216.95,-110.652C6198.89,-110.652 6181.58,-113.934 6165.61,-119.934C6138.12,-94.433 6101.31,-78.831 6060.88,-78.831C6034.32,-78.831 6009.32,-85.568 5987.5,-97.421C5956.51,-69.477 5915.47,-52.457 5870.5,-52.457C5870.21,-52.457 5869.92,-52.458 5869.62,-52.46C5837.91,-8.615 5786.33,19.937 5728.14,19.937C5653.81,19.937 5590.27,-26.637 5565.14,-92.177C5526.13,-108.912 5494.44,-139.464 5476.22,-177.662C5388.66,-179.808 5318.25,-251.554 5318.25,-339.617C5318.25,-407.275 5359.81,-465.302 5418.77,-489.532C5418.11,-493.448 5417.76,-497.471 5417.76,-501.574C5417.76,-541.026 5449.79,-573.056 5489.24,-573.056C5492.86,-573.056 5496.41,-572.787 5499.89,-572.268C5518.67,-617.495 5563.28,-649.333 5615.27,-649.333C5624.06,-649.333 5632.64,-648.424 5640.91,-646.693Z" style="fill:rgb(133,45,97);"/>
            </g>
            <g transform="matrix(1,0,0,1,-27.7801,1.48605)">
                <path d="M5640.91,-646.693C5672.92,-683.807 5720.28,-707.313 5773.08,-707.313C5818.14,-707.313 5859.24,-690.195 5890.22,-662.109C5907.34,-672.544 5927.45,-678.558 5948.96,-678.558C5974.7,-678.558 5998.45,-669.942 6017.44,-655.45C6038.07,-662.856 6060.31,-666.895 6083.49,-666.895C6149.36,-666.895 6207.67,-634.285 6243.15,-584.334C6246.22,-584.541 6249.31,-584.646 6252.42,-584.646C6300.16,-584.646 6342.19,-560.017 6366.5,-522.775C6373.23,-526.179 6380.84,-528.096 6388.88,-528.096C6405.04,-528.096 6419.4,-520.37 6428.48,-508.418C6443.23,-513.906 6459.2,-516.907 6475.87,-516.907C6551,-516.907 6612,-455.906 6612,-380.769C6612,-336.672 6590.99,-297.443 6558.45,-272.561C6557.21,-244.971 6538.57,-221.878 6513.26,-214.01C6493.43,-165.673 6445.88,-131.588 6390.43,-131.588C6364.2,-131.588 6339.75,-139.21 6319.17,-152.351C6292.79,-126.558 6256.71,-110.652 6216.95,-110.652C6198.89,-110.652 6181.58,-113.934 6165.61,-119.934C6138.12,-94.433 6101.31,-78.831 6060.88,-78.831C6034.32,-78.831 6009.32,-85.568 5987.5,-97.421C5956.51,-69.477 5915.47,-52.457 5870.5,-52.457C5870.21,-52.457 5869.92,-52.458 5869.62,-52.46C5837.91,-8.615 5786.33,19.937 5728.14,19.937C5653.81,19.937 5590.27,-26.637 5565.14,-92.177C5526.13,-108.912 5494.44,-139.464 5476.22,-177.662C5388.66,-179.808 5318.25,-251.554 5318.25,-339.617C5318.25,-407.275 5359.81,-465.302 5418.77,-489.532C5418.11,-493.448 5417.76,-497.471 5417.76,-501.574C5417.76,-541.026 5449.79,-573.056 5489.24,-573.056C5492.86,-573.056 5496.41,-572.787 5499.89,-572.268C5518.67,-617.495 5563.28,-649.333 5615.27,-649.333C5624.06,-649.333 5632.64,-648.424 5640.91,-646.693Z" style="fill:rgb(242,67,174);"/>
            </g>
        </g>
    </g>
</svg>
