<?xml version="1.0" encoding="UTF-8" standalone="no"?>
<!DOCTYPE svg PUBLIC "-//W3C//DTD SVG 1.1//EN" "http://www.w3.org/Graphics/SVG/1.1/DTD/svg11.dtd">
<svg width="100%" height="100%" viewBox="0 0 1797 815" version="1.1" xmlns="http://www.w3.org/2000/svg" xmlns:xlink="http://www.w3.org/1999/xlink" xml:space="preserve" xmlns:serif="http://www.serif.com/" style="fill-rule:evenodd;clip-rule:evenodd;stroke-linejoin:round;stroke-miterlimit:2;">
    <g transform="matrix(1,0,0,1,-3181.17,-1972.16)">
        <g transform="matrix(1,0,0,1,3352.54,0)">
            <g transform="matrix(-1.02733,0.112973,-0.112567,-1.02363,767.664,4393.19)">
                <g transform="matrix(-0.849666,0,0,0.844053,5004.84,2507.08)">
                    <path d="M5780.34,-994.244C5810.02,-1044.1 5864.46,-1077.53 5926.65,-1077.53C5992.58,-1077.53 6049.8,-1039.95 6078.04,-985.066C6127.91,-982.538 6169.78,-949.472 6185.29,-904.219C6196.36,-906.295 6207.78,-907.381 6219.45,-907.381C6299.19,-907.381 6367.18,-856.702 6392.94,-785.815C6420.48,-810.113 6456.62,-824.86 6496.19,-824.86C6539.59,-824.86 6578.89,-807.109 6607.2,-778.47C6631.72,-832.622 6686.26,-870.337 6749.53,-870.337C6824.98,-870.337 6888.01,-816.697 6902.52,-745.499C6921.26,-753.469 6941.88,-757.88 6963.51,-757.88C7049.69,-757.88 7119.65,-687.916 7119.65,-601.739C7119.65,-515.562 7049.69,-445.598 6963.51,-445.598C6949.29,-445.598 6935.5,-447.505 6922.4,-451.078C6901.15,-367.485 6825.32,-305.574 6735.15,-305.574C6664.82,-305.574 6603.22,-343.235 6569.44,-399.469C6538.15,-377.66 6500.13,-364.869 6459.14,-364.869C6437.78,-364.869 6417.21,-368.346 6397.98,-374.766C6372.69,-327.758 6323.03,-295.777 6265.96,-295.777C6262.73,-295.777 6259.53,-295.88 6256.35,-296.081C6234.96,-239.44 6180.22,-199.119 6116.14,-199.119C6080.4,-199.119 6047.57,-211.659 6021.81,-232.574C6000.18,-196.133 5960.43,-171.684 5915.02,-171.684C5858.57,-171.684 5810.88,-209.447 5795.85,-261.056C5776.33,-248.237 5752.97,-240.776 5727.88,-240.776C5689.1,-240.776 5654.44,-258.608 5631.68,-286.515C5609.11,-255.557 5572.56,-235.419 5531.34,-235.419C5501.45,-235.419 5474.01,-246.014 5452.57,-263.651C5433.24,-220.218 5389.7,-189.909 5339.14,-189.909C5270.65,-189.909 5215.04,-245.513 5215.04,-314.002L5214.24,-314.005C5146.12,-314.436 5090.95,-369.874 5090.95,-438.096C5090.95,-479.778 5111.55,-516.688 5143.1,-539.193C5140.23,-550.652 5138.7,-562.639 5138.7,-574.98C5138.7,-640.174 5181.29,-695.501 5240.13,-714.63C5240.12,-715.145 5240.12,-715.649 5240.12,-716.155C5240.12,-796.352 5305.23,-861.462 5385.43,-861.462C5393.85,-861.462 5402.1,-860.744 5410.14,-859.364C5432.33,-888.143 5467.13,-906.694 5506.24,-906.694C5508.86,-906.694 5511.47,-906.61 5514.05,-906.446C5532.51,-957.79 5581.66,-994.548 5639.33,-994.548C5663.33,-994.548 5685.86,-988.179 5705.31,-977.039C5724.77,-988.179 5747.3,-994.548 5771.3,-994.548C5774.34,-994.548 5777.36,-994.445 5780.34,-994.244ZM6156.86,-549.234C6156.85,-548.891 6156.84,-548.548 6156.82,-548.197C6157.07,-548.459 6157.31,-548.72 6157.57,-548.983L6157.1,-549.15L6156.86,-549.234ZM6013.09,-760.822L6012.98,-760.761C6013.37,-760.623 6013.77,-760.485 6014.15,-760.349C6013.83,-760.526 6013.51,-760.705 6013.19,-760.885L6013.09,-760.822Z" style="fill:rgb(236,236,236);"/>
                </g>
                <g transform="matrix(-0.852267,0,1.11474e-17,0.852267,5017.81,2485.26)">
                    <path d="M5780.34,-994.244C5810.02,-1044.1 5864.46,-1077.53 5926.65,-1077.53C5992.58,-1077.53 6049.8,-1039.95 6078.04,-985.066C6127.91,-982.538 6169.78,-949.472 6185.29,-904.219C6196.36,-906.295 6207.78,-907.381 6219.45,-907.381C6299.19,-907.381 6367.18,-856.702 6392.94,-785.815C6420.48,-810.113 6456.62,-824.86 6496.19,-824.86C6539.59,-824.86 6578.89,-807.109 6607.2,-778.47C6631.72,-832.622 6686.26,-870.337 6749.53,-870.337C6824.98,-870.337 6888.01,-816.697 6902.52,-745.499C6921.26,-753.469 6941.88,-757.88 6963.51,-757.88C7049.69,-757.88 7119.65,-687.916 7119.65,-601.739C7119.65,-515.562 7049.69,-445.598 6963.51,-445.598C6949.29,-445.598 6935.5,-447.505 6922.4,-451.078C6901.15,-367.485 6825.32,-305.574 6735.15,-305.574C6664.82,-305.574 6603.22,-343.235 6569.44,-399.469C6538.15,-377.66 6500.13,-364.869 6459.14,-364.869C6437.78,-364.869 6417.21,-368.346 6397.98,-374.766C6372.69,-327.758 6323.03,-295.777 6265.96,-295.777C6262.73,-295.777 6259.53,-295.88 6256.35,-296.081C6234.96,-239.44 6180.22,-199.119 6116.14,-199.119C6080.4,-199.119 6047.57,-211.659 6021.81,-232.574C6000.18,-196.133 5960.43,-171.684 5915.02,-171.684C5858.57,-171.684 5810.88,-209.447 5795.85,-261.056C5776.33,-248.237 5752.97,-240.776 5727.88,-240.776C5689.1,-240.776 5654.44,-258.608 5631.68,-286.515C5609.11,-255.557 5572.56,-235.419 5531.34,-235.419C5501.45,-235.419 5474.01,-246.014 5452.57,-263.651C5433.24,-220.218 5389.7,-189.909 5339.14,-189.909C5270.65,-189.909 5215.04,-245.513 5215.04,-314.002L5214.24,-314.005C5146.12,-314.436 5090.95,-369.874 5090.95,-438.096C5090.95,-479.778 5111.55,-516.688 5143.1,-539.193C5140.23,-550.652 5138.7,-562.639 5138.7,-574.98C5138.7,-640.174 5181.29,-695.501 5240.13,-714.63C5240.12,-715.145 5240.12,-715.649 5240.12,-716.155C5240.12,-796.352 5305.23,-861.462 5385.43,-861.462C5393.85,-861.462 5402.1,-860.744 5410.14,-859.364C5432.33,-888.143 5467.13,-906.694 5506.24,-906.694C5508.86,-906.694 5511.47,-906.61 5514.05,-906.446C5532.51,-957.79 5581.66,-994.548 5639.33,-994.548C5663.33,-994.548 5685.86,-988.179 5705.31,-977.039C5724.77,-988.179 5747.3,-994.548 5771.3,-994.548C5774.34,-994.548 5777.36,-994.445 5780.34,-994.244ZM6156.86,-549.234C6156.85,-548.891 6156.84,-548.548 6156.82,-548.197C6157.07,-548.459 6157.31,-548.72 6157.57,-548.983L6157.1,-549.15L6156.86,-549.234ZM6013.09,-760.822L6012.98,-760.761C6013.37,-760.623 6013.77,-760.485 6014.15,-760.349C6013.83,-760.526 6013.51,-760.705 6013.19,-760.885L6013.09,-760.822Z" style="fill:rgb(239,247,246);"/>
                </g>
            </g>
        </g>
    </g>
</svg>
